<svg xmlns="http://www.w3.org/2000/svg" viewBox="0 0 512 512">
  <rect width="512" height="512" rx="50" fill="#4f46e5" />
  <g transform="translate(128, 128) scale(0.5)">
    <path fill="#ffffff" d="M80 48C80 21.49 101.5 0 128 0h64c26.5 0 48 21.49 48 48v48h96V48c0-26.51 21.5-48 48-48h64c26.5 0 48 21.49 48 48v144c0 101.7-76.6 185.5-175.8 196.9l-26.9 26.9c-12.5 12.5-32.8 12.5-45.3 0l-26.9-26.9C122.6 377.5 46 293.7 46 192V48c0-26.51 21.49-48 48-48h64c26.5 0 48 21.49 48 48v48h96V48c0-26.51 21.5-48 48-48h64c26.5 0 48 21.49 48 48v144c0 101.7-76.6 185.5-175.8 196.9l-26.9 26.9c-12.5 12.5-32.8 12.5-45.3 0l-26.9-26.9C122.6 377.5 46 293.7 46 192V48c0-26.51 21.49-48 48-48zM96 144V48c0-17.67 14.3-32 32-32h64c17.7 0 32 14.33 32 32v96c0 17.7-14.3 32-32 32H128c-17.7 0-32-14.3-32-32zm256 0V48c0-17.67 14.3-32 32-32h64c17.7 0 32 14.33 32 32v96c0 17.7-14.3 32-32 32H384c-17.7 0-32-14.3-32-32z" />
  </g>
</svg>  